<mxfile host="app.diagrams.net" agent="Mozilla/5.0 (Windows NT 10.0; Win64; x64) AppleWebKit/537.36 (KHTML, like Gecko) Chrome/131.0.0.0 Safari/537.36" version="25.0.3">
  <diagram id="CRvdh2sFdao310t_C4vU" name="Halaman-1">
    <mxGraphModel dx="1194" dy="638" grid="1" gridSize="10" guides="1" tooltips="1" connect="1" arrows="1" fold="1" page="1" pageScale="1" pageWidth="827" pageHeight="1169" math="0" shadow="0">
      <root>
        <mxCell id="0" />
        <mxCell id="1" parent="0" />
        <mxCell id="mWcz56Tk-XuxLP5YJigB-1" value="User" style="swimlane;whiteSpace=wrap;html=1;" vertex="1" parent="1">
          <mxGeometry x="60" y="30" width="200" height="470" as="geometry" />
        </mxCell>
        <mxCell id="mWcz56Tk-XuxLP5YJigB-2" value="" style="edgeStyle=orthogonalEdgeStyle;rounded=0;orthogonalLoop=1;jettySize=auto;html=1;" edge="1" parent="mWcz56Tk-XuxLP5YJigB-1" source="mWcz56Tk-XuxLP5YJigB-3" target="mWcz56Tk-XuxLP5YJigB-4">
          <mxGeometry relative="1" as="geometry" />
        </mxCell>
        <mxCell id="mWcz56Tk-XuxLP5YJigB-3" value="" style="ellipse;whiteSpace=wrap;html=1;aspect=fixed;color=black;" vertex="1" parent="mWcz56Tk-XuxLP5YJigB-1">
          <mxGeometry x="90" y="55" width="20" height="20" as="geometry" />
        </mxCell>
        <mxCell id="mWcz56Tk-XuxLP5YJigB-4" value="Mengklik tombol Feedback" style="rounded=1;whiteSpace=wrap;html=1;" vertex="1" parent="mWcz56Tk-XuxLP5YJigB-1">
          <mxGeometry x="40" y="105" width="120" height="30" as="geometry" />
        </mxCell>
        <mxCell id="mWcz56Tk-XuxLP5YJigB-5" value="Mulai" style="text;html=1;align=center;verticalAlign=middle;resizable=0;points=[];autosize=1;strokeColor=none;fillColor=none;" vertex="1" parent="mWcz56Tk-XuxLP5YJigB-1">
          <mxGeometry x="75" y="30" width="50" height="30" as="geometry" />
        </mxCell>
        <mxCell id="mWcz56Tk-XuxLP5YJigB-16" value="User Mengisi Feedback dan Menekan tombol Submit" style="rounded=1;whiteSpace=wrap;html=1;" vertex="1" parent="mWcz56Tk-XuxLP5YJigB-1">
          <mxGeometry x="27.5" y="190" width="145" height="50" as="geometry" />
        </mxCell>
        <mxCell id="mWcz56Tk-XuxLP5YJigB-6" value="Sistem" style="swimlane;whiteSpace=wrap;html=1;" vertex="1" parent="1">
          <mxGeometry x="260" y="30" width="290" height="470" as="geometry" />
        </mxCell>
        <mxCell id="mWcz56Tk-XuxLP5YJigB-8" value="Menampilkan Laman Feedback" style="rounded=1;whiteSpace=wrap;html=1;" vertex="1" parent="mWcz56Tk-XuxLP5YJigB-6">
          <mxGeometry x="72.5" y="150" width="145" height="30" as="geometry" />
        </mxCell>
        <mxCell id="mWcz56Tk-XuxLP5YJigB-9" style="edgeStyle=orthogonalEdgeStyle;rounded=0;orthogonalLoop=1;jettySize=auto;html=1;entryX=0.5;entryY=0;entryDx=0;entryDy=0;" edge="1" parent="mWcz56Tk-XuxLP5YJigB-6" target="mWcz56Tk-XuxLP5YJigB-11">
          <mxGeometry relative="1" as="geometry">
            <mxPoint x="146.5" y="341" as="sourcePoint" />
          </mxGeometry>
        </mxCell>
        <mxCell id="mWcz56Tk-XuxLP5YJigB-11" value="" style="ellipse;whiteSpace=wrap;html=1;aspect=fixed;color=black;" vertex="1" parent="mWcz56Tk-XuxLP5YJigB-6">
          <mxGeometry x="131.5" y="371" width="30" height="30" as="geometry" />
        </mxCell>
        <mxCell id="mWcz56Tk-XuxLP5YJigB-12" value="" style="ellipse;whiteSpace=wrap;html=1;aspect=fixed;color=black;" vertex="1" parent="mWcz56Tk-XuxLP5YJigB-6">
          <mxGeometry x="136.5" y="376" width="20" height="20" as="geometry" />
        </mxCell>
        <mxCell id="mWcz56Tk-XuxLP5YJigB-13" value="selesai" style="text;html=1;align=center;verticalAlign=middle;resizable=0;points=[];autosize=1;strokeColor=none;fillColor=none;" vertex="1" parent="mWcz56Tk-XuxLP5YJigB-6">
          <mxGeometry x="116.5" y="401" width="60" height="30" as="geometry" />
        </mxCell>
        <mxCell id="mWcz56Tk-XuxLP5YJigB-22" value="Menampilkan pesan Feedback berhasil disimpan/dibuat" style="rounded=1;whiteSpace=wrap;html=1;" vertex="1" parent="mWcz56Tk-XuxLP5YJigB-6">
          <mxGeometry x="65" y="310" width="177.5" height="30" as="geometry" />
        </mxCell>
        <mxCell id="mWcz56Tk-XuxLP5YJigB-14" value="Server" style="swimlane;whiteSpace=wrap;html=1;" vertex="1" parent="1">
          <mxGeometry x="550" y="30" width="290" height="470" as="geometry" />
        </mxCell>
        <mxCell id="mWcz56Tk-XuxLP5YJigB-20" value="Menyimpan Feedback Pada Database" style="rounded=1;whiteSpace=wrap;html=1;" vertex="1" parent="mWcz56Tk-XuxLP5YJigB-14">
          <mxGeometry x="80" y="250" width="145" height="30" as="geometry" />
        </mxCell>
        <mxCell id="mWcz56Tk-XuxLP5YJigB-18" style="edgeStyle=orthogonalEdgeStyle;rounded=0;orthogonalLoop=1;jettySize=auto;html=1;entryX=0.5;entryY=0;entryDx=0;entryDy=0;" edge="1" parent="1" source="mWcz56Tk-XuxLP5YJigB-4" target="mWcz56Tk-XuxLP5YJigB-8">
          <mxGeometry relative="1" as="geometry">
            <mxPoint x="320" y="150" as="targetPoint" />
          </mxGeometry>
        </mxCell>
        <mxCell id="mWcz56Tk-XuxLP5YJigB-7" style="edgeStyle=orthogonalEdgeStyle;rounded=0;orthogonalLoop=1;jettySize=auto;html=1;entryX=0.455;entryY=0;entryDx=0;entryDy=0;entryPerimeter=0;" edge="1" parent="1" source="mWcz56Tk-XuxLP5YJigB-8" target="mWcz56Tk-XuxLP5YJigB-16">
          <mxGeometry relative="1" as="geometry">
            <mxPoint x="610" y="195" as="targetPoint" />
          </mxGeometry>
        </mxCell>
        <mxCell id="mWcz56Tk-XuxLP5YJigB-21" style="edgeStyle=orthogonalEdgeStyle;rounded=0;orthogonalLoop=1;jettySize=auto;html=1;entryX=0.5;entryY=0;entryDx=0;entryDy=0;" edge="1" parent="1" source="mWcz56Tk-XuxLP5YJigB-16" target="mWcz56Tk-XuxLP5YJigB-20">
          <mxGeometry relative="1" as="geometry" />
        </mxCell>
        <mxCell id="mWcz56Tk-XuxLP5YJigB-24" style="edgeStyle=orthogonalEdgeStyle;rounded=0;orthogonalLoop=1;jettySize=auto;html=1;entryX=0.445;entryY=0.133;entryDx=0;entryDy=0;entryPerimeter=0;" edge="1" parent="1" source="mWcz56Tk-XuxLP5YJigB-20" target="mWcz56Tk-XuxLP5YJigB-22">
          <mxGeometry relative="1" as="geometry" />
        </mxCell>
      </root>
    </mxGraphModel>
  </diagram>
</mxfile>
